<svg width="38" height="39" viewBox="0 0 38 39" fill="none" xmlns="http://www.w3.org/2000/svg">
<g filter="url(#filter0_b_1_2251)">
<rect x="-0.00012207" y="0.810547" width="38" height="38" rx="6" fill="#E67E22"/>
<path d="M18.5401 9.83323C17.9729 10.0352 17.6249 10.5379 17.6249 11.1524C17.6249 11.7024 17.8913 12.1406 18.3725 12.377C18.9999 12.6864 19.7561 12.493 20.13 11.9344C20.3405 11.625 20.3878 11.436 20.3663 11.0492C20.3448 10.684 20.2503 10.4563 20.0053 10.1856C19.6702 9.81174 19.0257 9.66135 18.5401 9.83323Z" fill="white"/>
<path d="M14.7674 12.9441C13.517 13.6703 12.4857 14.2848 12.4771 14.3105C12.4685 14.3363 12.4814 14.3836 12.5072 14.4137C12.533 14.4437 12.6103 14.5684 12.6748 14.693L12.7951 14.9121L14.9865 13.6402C16.1896 12.9441 17.2166 12.3426 17.2682 12.3082L17.3627 12.248L17.2166 11.943C17.135 11.7754 17.0662 11.6336 17.0576 11.6293C17.049 11.625 16.0221 12.2137 14.7674 12.9441Z" fill="white"/>
<path d="M20.8905 11.7281C20.8905 11.7711 20.8346 11.9172 20.7659 12.0504L20.637 12.291L20.8174 12.3941C20.9163 12.4543 21.9432 13.043 23.0991 13.7047L25.2045 14.9121L25.3249 14.6844C25.3936 14.5641 25.4667 14.4437 25.4881 14.4223C25.5139 14.3965 25.5311 14.3578 25.5311 14.3277C25.5311 14.2848 20.985 11.6465 20.912 11.6465C20.8991 11.6465 20.8905 11.6852 20.8905 11.7281Z" fill="white"/>
<path d="M18.6561 14.7402V16.373H18.9999H19.3436V14.7402V13.1074H18.9999H18.6561V14.7402Z" fill="white"/>
<path d="M10.5092 14.2847C9.50376 14.6113 9.22446 15.9132 10.0022 16.6265C10.2858 16.8843 10.5608 16.9874 10.9733 16.9831C11.5061 16.9789 11.9315 16.7039 12.1721 16.2226C12.5159 15.5222 12.2108 14.6929 11.4889 14.3664C11.2053 14.2331 10.7713 14.1988 10.5092 14.2847Z" fill="white"/>
<path d="M26.6697 14.2804C26.3775 14.3792 26.2357 14.4695 26.0338 14.6972C25.7932 14.9636 25.69 15.2515 25.6943 15.6468C25.6986 16.3988 26.2744 16.9746 27.0264 16.9832C27.1982 16.9832 27.4174 16.9531 27.5463 16.9101C27.8342 16.8156 28.1607 16.5191 28.3111 16.2097C28.4143 15.9992 28.4315 15.9132 28.4315 15.5996C28.4315 15.1828 28.3541 14.9937 28.0576 14.6714C27.7268 14.3105 27.1037 14.1386 26.6697 14.2804Z" fill="white"/>
<path d="M12.6963 16.4461C12.6447 16.5621 12.5674 16.7039 12.5287 16.7684C12.4858 16.8328 12.46 16.893 12.4686 16.9016C12.4815 16.9145 13.2205 17.3398 14.1143 17.8469C15.4678 18.6203 15.7428 18.7621 15.7643 18.702C15.7772 18.6633 15.8459 18.5086 15.9104 18.3625L16.0264 18.0961L14.4322 17.1809C13.5557 16.6781 12.8252 16.2613 12.8123 16.2527C12.7994 16.2484 12.7479 16.3344 12.6963 16.4461Z" fill="white"/>
<path d="M23.6104 17.1594C22.7553 17.6621 22.0463 18.0789 22.0335 18.0961C22.0077 18.1176 22.244 18.7578 22.2784 18.7578C22.2999 18.7578 25.4065 16.9746 25.4753 16.923C25.5139 16.893 25.4924 16.8328 25.4022 16.6867C25.3335 16.5793 25.2647 16.4375 25.2518 16.3687C25.2346 16.3 25.2088 16.2441 25.196 16.2484C25.1788 16.2527 24.4655 16.6609 23.6104 17.1594Z" fill="white"/>
<path d="M18.321 17.0347C17.5905 17.2152 16.9116 17.7652 16.5721 18.457C16.3702 18.8652 16.2928 19.196 16.2928 19.6429C16.2928 20.3175 16.4518 20.9105 16.8214 21.6238C17.4573 22.8527 18.4413 23.5058 19.3479 23.291C20.1214 23.1105 20.9249 22.307 21.3632 21.28C21.5952 20.7429 21.6682 20.4164 21.694 19.832C21.7241 19.1917 21.6725 18.9382 21.419 18.4312C21.0753 17.7394 20.4393 17.2324 19.6659 17.039C19.3565 16.9617 18.6389 16.9617 18.321 17.0347Z" fill="white"/>
<path d="M10.578 20.2188V22.8398H10.9432H11.3085V20.2188V17.5977H10.9432H10.578V20.2188Z" fill="white"/>
<path d="M26.6913 20.2188V22.8398H27.0565H27.4218V20.2188V17.5977H27.0565H26.6913V20.2188Z" fill="white"/>
<path d="M14.2175 22.552C12.5073 23.5403 12.4687 23.566 12.5331 23.652C12.5718 23.7035 12.6491 23.8453 12.7093 23.9699C12.7737 24.0946 12.8425 24.1891 12.8726 24.1805C12.9628 24.1461 16.2714 22.2125 16.3101 22.1738C16.3616 22.1223 16.0823 21.525 16.0179 21.5336C15.9921 21.5379 15.1843 21.9934 14.2175 22.552Z" fill="white"/>
<path d="M21.7929 21.8301C21.7026 22.0191 21.6639 22.148 21.6897 22.1695C21.7327 22.2168 25.0929 24.1934 25.1229 24.1934C25.1358 24.1934 25.196 24.0902 25.2561 23.9656C25.3163 23.8453 25.3979 23.7078 25.4366 23.6648C25.4753 23.6219 25.4882 23.5746 25.4624 23.5531C25.4022 23.4973 22.0034 21.5293 21.969 21.5293C21.9518 21.5293 21.8745 21.6668 21.7929 21.8301Z" fill="white"/>
<path d="M10.4104 23.5531C10.1268 23.6648 9.82173 23.957 9.67563 24.2578C9.52954 24.55 9.52524 25.1043 9.66274 25.405C9.80024 25.7058 10.0667 25.9679 10.3674 26.1054C10.6081 26.2129 10.6682 26.2215 11.0034 26.2043C11.3084 26.1914 11.4116 26.1656 11.6006 26.0625C12.3741 25.6414 12.5545 24.5886 11.9659 23.9355C11.6823 23.6218 11.4116 23.4929 10.9862 23.4757C10.7112 23.4672 10.5952 23.48 10.4104 23.5531Z" fill="white"/>
<path d="M26.6913 23.5016C26.2745 23.6391 25.8878 24 25.7632 24.3781C25.6514 24.7047 25.6686 25.1215 25.8018 25.4137C26.0382 25.925 26.5022 26.2129 27.0909 26.2129C28.2382 26.2129 28.8698 24.8637 28.1393 23.9699C27.8772 23.6477 27.5635 23.4973 27.1296 23.4801C26.9491 23.4715 26.7514 23.4801 26.6913 23.5016Z" fill="white"/>
<path d="M16.701 23.6133C15.5022 23.8367 14.4968 24.6145 13.9639 25.7316C13.6245 26.432 13.5858 26.6984 13.5858 28.3227C13.5858 29.5988 13.5901 29.6891 13.6675 29.7836L13.7491 29.8867H18.9999H24.2507L24.3366 29.7793C24.4182 29.6805 24.4182 29.6203 24.4053 28.168C24.3882 26.7715 24.3796 26.6426 24.2893 26.3504C23.8553 24.898 22.721 23.8625 21.2987 23.6133C20.796 23.5273 17.1694 23.5273 16.701 23.6133Z" fill="white"/>
<path d="M12.7264 25.6027C12.7264 25.6242 12.6576 25.7531 12.5717 25.8906C12.3998 26.1828 12.3912 26.1613 12.808 26.3934L13.0143 26.5137L13.1088 26.1957C13.156 26.0195 13.199 25.8562 13.199 25.8305C13.199 25.7832 12.8553 25.5684 12.7779 25.5684C12.7478 25.5684 12.7264 25.5855 12.7264 25.6027Z" fill="white"/>
<path d="M24.994 25.6672C24.7963 25.7789 24.792 25.8219 24.9167 26.243L24.994 26.5094L25.2647 26.3504C25.4108 26.2645 25.5311 26.1742 25.5311 26.1571C25.5311 26.1141 25.2131 25.5727 25.1874 25.5727C25.1745 25.5684 25.0885 25.6156 24.994 25.6672Z" fill="white"/>
</g>
<defs>
<filter id="filter0_b_1_2251" x="-20.8096" y="-19.999" width="79.619" height="79.619" filterUnits="userSpaceOnUse" color-interpolation-filters="sRGB">
<feFlood flood-opacity="0" result="BackgroundImageFix"/>
<feGaussianBlur in="BackgroundImageFix" stdDeviation="10.4048"/>
<feComposite in2="SourceAlpha" operator="in" result="effect1_backgroundBlur_1_2251"/>
<feBlend mode="normal" in="SourceGraphic" in2="effect1_backgroundBlur_1_2251" result="shape"/>
</filter>
</defs>
</svg>
