<svg width="39" height="38" viewBox="0 0 39 38" fill="none" xmlns="http://www.w3.org/2000/svg">
<g filter="url(#filter0_b_1_1953)">
<rect x="0.777832" width="38" height="38" rx="6" fill="#E67E22"/>
<path d="M19.2111 8.68582C17.6201 8.87832 16.343 9.50058 15.2881 10.5839C14.3728 11.524 13.7843 12.6611 13.5402 13.9504C13.4966 14.1921 13.4574 14.4831 13.4574 14.595C13.4574 14.7786 13.44 14.8144 13.2351 15.0069C12.8515 15.365 12.8472 15.3785 12.8472 16.8916C12.8472 17.8004 12.8646 18.2615 12.8995 18.3913C12.9692 18.633 13.2918 18.9643 13.5272 19.0359C13.9674 19.1702 14.4338 19.0673 14.7084 18.7763C15.0048 18.4674 15.0048 18.454 15.0048 16.9408C15.0048 15.5933 15.0048 15.571 14.9002 15.3561C14.8392 15.2307 14.7258 15.092 14.6299 15.0203C14.4817 14.9174 14.4643 14.8816 14.46 14.7114C14.46 14.4518 14.5689 13.9101 14.7258 13.4311C15.323 11.5867 16.9096 10.1766 18.8058 9.79604C19.3157 9.69308 20.2398 9.69308 20.7498 9.79604C22.9598 10.2392 24.6946 12.0612 25.052 14.313C25.1305 14.8055 25.1131 14.8905 24.9256 15.0203C24.8297 15.092 24.7164 15.2307 24.6554 15.3561C24.5551 15.571 24.5508 15.6113 24.5377 16.8379C24.529 17.5362 24.542 18.1719 24.5638 18.2525C24.6074 18.4047 24.6031 18.4047 24.3633 18.548C23.8403 18.8569 23.0426 19.1255 22.4018 19.206C22.2057 19.2329 22.1577 19.2239 22.0749 19.1478C21.8918 18.9732 21.8003 18.9553 21.1813 18.9553C20.6234 18.9553 20.5624 18.9643 20.4273 19.0583C20.0306 19.3269 20.0393 19.8686 20.4403 20.1775C20.5275 20.2446 20.6496 20.2715 20.9678 20.2894C21.5998 20.3207 21.8439 20.276 22.0444 20.0924C22.1926 19.9536 22.258 19.9313 22.6285 19.8731C23.5177 19.7343 24.3067 19.4523 24.8777 19.0628C25.0302 18.9598 25.0433 18.9553 25.1959 19.0225C25.3877 19.1031 25.78 19.112 26.0284 19.0359C26.2638 18.9643 26.5864 18.633 26.6561 18.3913C26.691 18.2615 26.7084 17.8004 26.7084 16.8916C26.7084 15.3785 26.704 15.365 26.3205 15.0069C26.1156 14.8144 26.0982 14.7786 26.0982 14.595C26.0982 14.2996 25.95 13.5699 25.7974 13.0998C25.2787 11.5061 24.1062 10.1228 22.6329 9.3618C21.7785 8.92309 20.9372 8.70821 19.9521 8.68134C19.6296 8.67239 19.2939 8.67687 19.2111 8.68582Z" fill="white"/>
<path d="M19.3201 10.7675C18.7578 10.8212 18.2914 10.9555 17.7945 11.2062C17.071 11.5733 16.5479 12.0926 16.16 12.8313C15.4974 14.0982 15.4233 15.8799 15.9638 17.5542C16.221 18.351 16.6917 19.224 17.2933 20.0298C17.7858 20.6834 17.8773 21.0415 17.6681 21.4802C17.5243 21.7801 17.2671 21.9682 16.6612 22.2189C15.7851 22.5725 14.5036 23.2664 13.6187 23.8663C13.0695 24.2334 12.4375 24.8735 12.2718 25.2227C11.9972 25.7913 11.9231 26.6015 12.1018 27.1119C12.5552 28.4415 14.3597 29.1264 17.8163 29.2965C20.1265 29.4084 22.7593 29.3055 24.2675 29.0458C25.9326 28.7593 27.031 28.1908 27.3841 27.4387C27.5933 26.9955 27.6107 26.0822 27.4277 25.5137C27.2141 24.8601 26.6082 24.2065 25.6972 23.638C25.2351 23.347 24.0321 22.7561 23.4611 22.5367C22.7506 22.2636 22.3888 22.0711 22.1403 21.8428C21.8832 21.6056 21.8047 21.3952 21.8396 21.037L21.8614 20.8132H21.1814C20.4099 20.8132 20.3096 20.7863 19.9958 20.4953C19.3681 19.9134 19.5206 18.9106 20.2922 18.5211C20.5319 18.4002 20.5668 18.3958 21.1945 18.3958C21.8265 18.3958 21.857 18.4002 22.1055 18.5256C22.3626 18.6554 22.367 18.6554 22.6939 18.6017C23.2562 18.5032 23.2606 18.4987 23.4698 17.9436C23.9275 16.7215 24.0713 15.7724 23.9623 14.7025C23.8447 13.5386 23.5003 12.697 22.8552 11.9852C22.197 11.2599 21.3557 10.8615 20.2835 10.763C20.0176 10.7406 19.7822 10.7227 19.756 10.7227C19.7342 10.7272 19.5381 10.7451 19.3201 10.7675Z" fill="white"/>
</g>
<defs>
<filter id="filter0_b_1_1953" x="-20.0317" y="-20.8095" width="79.619" height="79.619" filterUnits="userSpaceOnUse" color-interpolation-filters="sRGB">
<feFlood flood-opacity="0" result="BackgroundImageFix"/>
<feGaussianBlur in="BackgroundImageFix" stdDeviation="10.4048"/>
<feComposite in2="SourceAlpha" operator="in" result="effect1_backgroundBlur_1_1953"/>
<feBlend mode="normal" in="SourceGraphic" in2="effect1_backgroundBlur_1_1953" result="shape"/>
</filter>
</defs>
</svg>
