<svg width="37" height="37" viewBox="0 0 37 37" fill="none" xmlns="http://www.w3.org/2000/svg">
<rect x="0.779663" y="0.0244141" width="36" height="36" rx="18" fill="white" fill-opacity="0.15"/>
<path d="M18.7775 15.3566C17.3085 15.3566 16.1098 16.5554 16.1098 18.0244C16.1098 19.4934 17.3085 20.6922 18.7775 20.6922C20.2465 20.6922 21.4453 19.4934 21.4453 18.0244C21.4453 16.5554 20.2465 15.3566 18.7775 15.3566ZM26.7788 18.0244C26.7788 16.9197 26.7888 15.8249 26.7267 14.7222C26.6647 13.4413 26.3725 12.3045 25.4359 11.3679C24.4973 10.4293 23.3625 10.1391 22.0817 10.077C20.977 10.015 19.8822 10.025 18.7795 10.025C17.6748 10.025 16.5801 10.015 15.4773 10.077C14.1965 10.1391 13.0598 10.4313 12.1231 11.3679C11.1845 12.3066 10.8943 13.4413 10.8323 14.7222C10.7703 15.8269 10.7803 16.9217 10.7803 18.0244C10.7803 19.1272 10.7703 20.2239 10.8323 21.3266C10.8943 22.6075 11.1865 23.7443 12.1231 24.6809C13.0618 25.6195 14.1965 25.9097 15.4773 25.9718C16.5821 26.0338 17.6768 26.0238 18.7795 26.0238C19.8842 26.0238 20.979 26.0338 22.0817 25.9718C23.3625 25.9097 24.4993 25.6175 25.4359 24.6809C26.3745 23.7423 26.6647 22.6075 26.7267 21.3266C26.7908 20.2239 26.7788 19.1292 26.7788 18.0244ZM18.7775 22.1292C16.506 22.1292 14.6728 20.2959 14.6728 18.0244C14.6728 15.7529 16.506 13.9196 18.7775 13.9196C21.049 13.9196 22.8822 15.7529 22.8822 18.0244C22.8822 20.2959 21.049 22.1292 18.7775 22.1292ZM23.0503 14.7102C22.52 14.7102 22.0917 14.2819 22.0917 13.7515C22.0917 13.2212 22.52 12.7929 23.0503 12.7929C23.5807 12.7929 24.009 13.2212 24.009 13.7515C24.0091 13.8775 23.9844 14.0022 23.9363 14.1186C23.8882 14.235 23.8176 14.3407 23.7285 14.4297C23.6395 14.5188 23.5337 14.5894 23.4174 14.6375C23.301 14.6856 23.1763 14.7103 23.0503 14.7102Z" fill="white"/>
</svg>
