<svg width="38" height="38" viewBox="0 0 38 38" fill="none" xmlns="http://www.w3.org/2000/svg">
<rect x="-0.00012207" width="38" height="38" rx="6" fill="#E67E22"/>
<g clip-path="url(#clip0_1_2235)">
<path d="M10.3331 8.08592C10.1526 8.19334 10.0495 8.40389 10.0452 8.64881C10.0452 9.01405 10.1139 9.0742 11.244 9.74451C11.9186 10.1441 12.3354 10.3676 12.4514 10.3847C12.692 10.4234 12.9928 10.2945 13.1131 10.0969C13.2163 9.92498 13.2292 9.59842 13.1346 9.41795C13.0487 9.25037 12.937 9.17303 11.8627 8.54569C10.9819 8.03006 10.9174 7.99998 10.7026 7.99998C10.5479 7.99998 10.4233 8.03006 10.3331 8.08592Z" fill="white"/>
<path d="M26.1542 8.61446C25.0026 9.29766 24.9296 9.36641 24.9296 9.73594C24.9296 10.0281 25.0456 10.2129 25.3034 10.3289C25.4452 10.3934 25.5483 10.4063 25.6686 10.3891C25.9135 10.3504 27.8815 9.18165 27.9846 9.01407C28.1135 8.80352 28.1264 8.58868 28.0276 8.36954C27.9159 8.11172 27.7311 8 27.4218 8C27.194 8.0043 27.1382 8.03008 26.1542 8.61446Z" fill="white"/>
<path d="M18.0761 8.77344C17.569 8.88086 17.264 8.99258 16.7569 9.25898C15.1628 10.084 14.1401 11.7855 14.1444 13.5988C14.1487 14.6816 14.4882 15.657 15.21 16.6754C15.6397 17.2727 16.0179 18.0074 16.2327 18.6434L16.3917 19.1289H17.4143H18.4413V17.148C18.4413 15.1887 18.4413 15.1629 18.5358 14.9996C18.6347 14.8234 18.9011 14.6602 19.0901 14.6602C19.2534 14.6602 19.5198 14.8406 19.6058 15.0039C19.6831 15.1414 19.6874 15.2875 19.6874 17.1437V19.1289L20.7229 19.1203L21.7542 19.1074L21.896 18.6734C22.1065 18.0246 22.4159 17.4187 22.9229 16.6711C23.5675 15.7129 23.7866 15.2145 23.9198 14.398C24.3323 11.85 22.7811 9.48672 20.2589 8.81211C19.7604 8.67461 18.6089 8.65742 18.0761 8.77344Z" fill="white"/>
<path d="M9.80886 12.3742C9.57253 12.4902 9.4823 12.6492 9.4823 12.9414C9.4823 13.2121 9.55105 13.3496 9.77878 13.5172C9.8905 13.6031 9.95066 13.6074 11.201 13.6074C12.4514 13.6074 12.5116 13.6031 12.6233 13.5172C12.9327 13.2895 13.0229 12.9242 12.8468 12.6234C12.6577 12.3055 12.6104 12.2969 11.201 12.2969C10.101 12.2969 9.93777 12.3055 9.80886 12.3742Z" fill="white"/>
<path d="M25.5311 12.3784C25.3205 12.4901 25.1744 12.778 25.2002 13.023C25.2217 13.2249 25.3162 13.3796 25.5053 13.5171C25.617 13.603 25.6901 13.6073 26.8674 13.6202C28.0533 13.6331 28.1221 13.6288 28.2983 13.5472C28.7752 13.3151 28.7924 12.6105 28.3197 12.3741C28.1908 12.3054 28.0276 12.2968 26.9276 12.2968C25.7932 12.2968 25.6686 12.3054 25.5311 12.3784Z" fill="white"/>
<path d="M12.039 15.7042C10.8745 16.3702 10.2644 16.7441 10.1913 16.8386C9.8046 17.3327 10.23 18.0288 10.8487 17.9085C11.0808 17.8612 12.9929 16.7097 13.1046 16.5507C13.2464 16.3401 13.2378 15.962 13.0874 15.7773C12.8167 15.455 12.5073 15.4335 12.039 15.7042Z" fill="white"/>
<path d="M25.2389 15.6011C25.0155 15.7429 24.9209 15.9319 24.9381 16.2069C24.9467 16.3358 24.9897 16.4948 25.0327 16.5593C25.1487 16.7398 27.1295 17.8913 27.3659 17.9171C27.5936 17.9429 27.7741 17.8698 27.9331 17.6894C28.1565 17.4315 28.1436 17.0233 27.9073 16.7999C27.8385 16.7398 27.353 16.4347 26.8202 16.121C25.9479 15.6054 25.8319 15.5452 25.617 15.5323C25.4323 15.5194 25.3506 15.5323 25.2389 15.6011Z" fill="white"/>
<path d="M16.5163 20.9422C16.5292 21.475 16.5421 21.5352 16.6667 21.7973C16.9202 22.343 17.3843 22.7211 17.9472 22.8457C18.2007 22.9059 18.4456 22.9145 19.2019 22.9016C20.0312 22.8887 20.1687 22.8758 20.3878 22.7941C20.882 22.6094 21.3116 22.1926 21.4921 21.7199C21.5695 21.5223 21.5952 21.3547 21.6124 20.9207L21.6296 20.375H19.0644H16.4991L16.5163 20.9422Z" fill="white"/>
<path d="M15.7343 24.5902C15.5323 24.6117 15.0124 24.689 14.5741 24.7578C12.5675 25.0757 11.8327 25.08 10.4878 24.7964C9.65847 24.6203 9.478 24.6031 9.28894 24.7019C9.2073 24.7449 9.09558 24.8437 9.04402 24.9253C8.94949 25.0671 8.94519 25.1015 8.94519 26.0898V27.1125L8.64011 27.1296C8.34363 27.1468 8.32644 27.1511 8.16746 27.3273C8.01277 27.4906 7.99988 27.525 7.99988 27.7527C7.99988 28.0707 8.1073 28.2554 8.35652 28.3671C8.52839 28.4488 8.67878 28.4531 12.0175 28.4531H15.4979L15.6397 28.7582C15.9018 29.3125 16.5206 29.8195 17.1093 29.9527C17.3671 30.0128 20.6327 30.0128 20.8905 29.9527C21.4792 29.8195 22.0979 29.3125 22.36 28.7582L22.5018 28.4531H25.9823C29.321 28.4531 29.4714 28.4488 29.6432 28.3671C29.8925 28.2554 29.9999 28.0707 29.9999 27.7527C29.9999 27.525 29.987 27.4906 29.8323 27.3273C29.6733 27.1511 29.6561 27.1468 29.3596 27.1296L29.0546 27.1125V26.0898C29.0546 25.1015 29.0503 25.0671 28.9557 24.9253C28.9042 24.8437 28.7925 24.7449 28.7108 24.7019C28.5218 24.6031 28.3413 24.6203 27.512 24.7964C26.0897 25.0972 25.5011 25.08 22.8456 24.6675C22.4245 24.6031 22.0335 24.573 21.535 24.5687C20.8733 24.5644 20.8046 24.573 20.4909 24.6804C20.0397 24.8308 19.6057 25.0972 19.2749 25.4238L18.9999 25.6945L18.7249 25.4238C18.3897 25.0929 17.9514 24.8308 17.5089 24.6847C17.2339 24.5945 17.0749 24.573 16.6366 24.5601C16.3401 24.5558 15.9362 24.5687 15.7343 24.5902Z" fill="white"/>
</g>
<defs>
<clipPath id="clip0_1_2235">
<rect width="22" height="22" fill="white" transform="translate(7.99988 8)"/>
</clipPath>
</defs>
</svg>
