<svg width="39" height="38" viewBox="0 0 39 38" fill="none" xmlns="http://www.w3.org/2000/svg">
<g filter="url(#filter0_b_1_1962)">
<rect x="0.777832" width="38" height="38" rx="6" fill="#E67E22"/>
<path d="M13.6131 11.9747C13.5916 11.9833 13.5142 12.0005 13.4498 12.0177C13.192 12.0735 12.4615 12.8856 11.9115 13.7278C11.1338 14.918 10.6181 16.3059 10.4377 17.7024C10.3474 18.3942 10.3474 19.6059 10.4377 20.2977C10.6912 22.2528 11.5892 24.152 12.9427 25.5829C13.2736 25.9352 13.4068 26.0126 13.6818 26.0126C14.0385 26.0126 14.3092 25.7891 14.3521 25.454C14.3951 25.1231 14.3435 25.0071 13.9439 24.5645C12.8697 23.3743 12.2467 22.1368 11.9072 20.5083C11.8213 20.1087 11.8084 19.9239 11.8084 19.0001C11.8084 18.0762 11.8213 17.8915 11.9072 17.4919C12.2424 15.8848 12.8912 14.5915 13.9095 13.4786C14.3092 13.0403 14.365 12.9415 14.365 12.6579C14.365 12.4044 14.249 12.1938 14.0427 12.0778C13.9138 12.0048 13.6904 11.9532 13.6131 11.9747Z" fill="white"/>
<path d="M26.1428 11.9961C25.799 12.0735 25.61 12.3485 25.6358 12.7352C25.6529 13.0016 25.6444 12.993 26.1986 13.6161C27.0967 14.6258 27.7541 15.9536 28.0549 17.3586C28.2053 18.0547 28.244 19.3911 28.1408 20.1172C27.9045 21.7329 27.2428 23.1938 26.2158 24.3625C25.5971 25.0715 25.6444 24.9899 25.6444 25.3165C25.6444 25.6473 25.7174 25.7891 25.9623 25.9352C26.1299 26.034 26.4608 26.0383 26.6369 25.9481C26.71 25.9094 26.8947 25.7461 27.0451 25.5829C28.3986 24.1477 29.2967 22.2528 29.5502 20.2977C29.6404 19.6059 29.6404 18.3942 29.5502 17.7024C29.2924 15.7215 28.3729 13.7922 27.0022 12.37C26.6627 12.0176 26.4565 11.9274 26.1428 11.9961Z" fill="white"/>
<path d="M15.4607 13.9813C15.1041 14.0587 14.322 15.004 13.8751 15.8977C13.3767 16.8903 13.1619 17.8313 13.1619 19.0001C13.1619 20.1688 13.3767 21.1098 13.8751 22.1024C14.1759 22.704 14.6615 23.3743 15.1041 23.7997C15.5939 24.2766 16.3416 24.0059 16.3416 23.3528C16.3416 23.095 16.29 22.9962 15.9978 22.6696C15.2888 21.8876 14.8376 20.9766 14.6443 19.9454C14.5455 19.4212 14.5541 18.5317 14.6615 17.9903C14.8634 16.9462 15.2931 16.104 16.0365 15.2876C16.3158 14.9782 16.3716 14.8321 16.3287 14.5227C16.2728 14.1231 15.8947 13.8825 15.4607 13.9813Z" fill="white"/>
<path d="M24.1662 13.9727C23.8225 14.0543 23.6334 14.325 23.6592 14.7117C23.6721 14.9738 23.6678 14.9652 24.1791 15.5582C25.8248 17.4617 25.8248 20.5383 24.1791 22.4418C23.6678 23.0348 23.6721 23.0262 23.6592 23.2883C23.6248 23.8039 24.0072 24.1305 24.5186 24.0187C24.6647 23.9887 24.7635 23.9242 24.9654 23.7137C26.0268 22.6352 26.7272 21.0496 26.8174 19.507C26.899 18.1449 26.6584 16.9547 26.0654 15.8117C25.6572 15.0254 24.858 14.05 24.5744 13.9941C24.5014 13.9769 24.4111 13.9598 24.3768 13.9512C24.3424 13.9469 24.2479 13.9555 24.1662 13.9727Z" fill="white"/>
<path d="M17.5833 15.4165C17.3427 15.4895 17.0162 15.7688 16.8873 16.0094L16.7927 16.1856V19.0001V21.8145L16.8873 21.9907C17.1537 22.4891 17.8197 22.7727 18.3224 22.6009C18.4041 22.5751 19.5814 21.9821 20.9392 21.2817C23.6162 19.9024 23.6978 19.8551 23.8353 19.4426C23.99 18.9958 23.8869 18.4801 23.5904 18.1708C23.4443 18.0247 22.9373 17.7454 20.9392 16.7141C19.5771 16.0137 18.3869 15.4208 18.2966 15.395C18.0689 15.3348 17.8283 15.3391 17.5833 15.4165Z" fill="white"/>
</g>
<defs>
<filter id="filter0_b_1_1962" x="-20.0317" y="-20.8095" width="79.619" height="79.619" filterUnits="userSpaceOnUse" color-interpolation-filters="sRGB">
<feFlood flood-opacity="0" result="BackgroundImageFix"/>
<feGaussianBlur in="BackgroundImageFix" stdDeviation="10.4048"/>
<feComposite in2="SourceAlpha" operator="in" result="effect1_backgroundBlur_1_1962"/>
<feBlend mode="normal" in="SourceGraphic" in2="effect1_backgroundBlur_1_1962" result="shape"/>
</filter>
</defs>
</svg>
