<svg width="37" height="37" viewBox="0 0 37 37" fill="none" xmlns="http://www.w3.org/2000/svg">
<rect x="0.779663" y="0.0244141" width="36" height="36" rx="18" fill="white" fill-opacity="0.15"/>
<path d="M27.4028 13.9081C27.3008 13.5446 27.1023 13.2155 26.8283 12.9558C26.5466 12.688 26.2013 12.4965 25.825 12.3993C24.4167 12.0281 18.7744 12.0281 18.7744 12.0281C16.4222 12.0014 14.0706 12.1191 11.7329 12.3806C11.3566 12.485 11.0119 12.6808 10.7295 12.9505C10.452 13.2175 10.2511 13.5467 10.1461 13.9074C9.89388 15.266 9.77135 16.6455 9.78013 18.0273C9.77113 19.4079 9.89336 20.787 10.1461 22.1473C10.2488 22.5065 10.449 22.8342 10.7272 23.0989C11.0055 23.3636 11.3519 23.5548 11.7329 23.6561C13.1599 24.0265 18.7744 24.0265 18.7744 24.0265C21.1296 24.0533 23.4842 23.9356 25.825 23.6741C26.2013 23.5769 26.5466 23.3854 26.8283 23.1176C27.1022 22.858 27.3005 22.5288 27.402 22.1653C27.6608 20.8072 27.7866 19.4271 27.7777 18.0446C27.7972 16.6562 27.6715 15.2696 27.4028 13.9074V13.9081ZM16.9807 20.595V15.4604L21.675 18.0281L16.9807 20.595Z" fill="white"/>
</svg>
